<?xml version="1.0" encoding="UTF-8" standalone="no"?>
<!DOCTYPE svg PUBLIC "-//W3C//DTD SVG 1.1//EN" "http://www.w3.org/Graphics/SVG/1.1/DTD/svg11.dtd">
<!-- Generated by Microsoft Visio, SVG Export CommunicateArchitecture.svg CommunicateArchitecture -->
<svg xmlns="http://www.w3.org/2000/svg" xmlns:xlink="http://www.w3.org/1999/xlink" xmlns:ev="http://www.w3.org/2001/xml-events"
		xmlns:v="http://schemas.microsoft.com/visio/2003/SVGExtensions/" width="2.63952in" height="7.43769in"
		viewBox="0 0 190.045 535.514" xml:space="preserve" color-interpolation-filters="sRGB" class="st14">
	<v:documentProperties v:langID="1033" v:viewMarkup="false">
		<v:userDefs>
			<v:ud v:nameU="msvNoAutoConnect" v:val="VT0(1):26"/>
		</v:userDefs>
	</v:documentProperties>

	<style type="text/css">
	<![CDATA[
		.st1 {fill:#ffffff}
		.st2 {stroke:#5d6e43;stroke-linecap:butt;stroke-width:1.25;visibility:hidden}
		.st3 {stroke:#5d6e43;stroke-linecap:butt;stroke-width:1.25}
		.st4 {fill:#000000;font-family:Franklin Gothic Book;font-size:0.666664em;font-weight:bold}
		.st5 {font-size:1em}
		.st6 {fill:url(#grad0-57)}
		.st7 {fill:url(#grad0-57);stroke:#5d6e43;stroke-dasharray:8,4;stroke-linecap:butt;stroke-width:1}
		.st8 {fill:#7f7f7f;font-family:Franklin Gothic Book;font-size:0.666664em;font-weight:bold}
		.st9 {fill:none}
		.st10 {stroke:#5d6e43;stroke-linecap:butt;stroke-width:1}
		.st11 {fill:#a42f0f}
		.st12 {stroke:#88260b;stroke-linecap:butt;stroke-width:1.25}
		.st13 {fill:#ffffff;font-family:Franklin Gothic Book;font-size:0.666664em;font-weight:bold}
		.st14 {fill:none;fill-rule:evenodd;font-size:12px;overflow:visible;stroke-linecap:square;stroke-miterlimit:3}
	]]>
	</style>

	<defs id="Patterns_And_Gradients">
		<linearGradient id="grad0-57" x1="0" y1="0" x2="1" y2="0" gradientTransform="rotate(90 0.5 0.5)">
			<stop offset="0.02" stop-color="#e5e7e2" stop-opacity="1"/>
			<stop offset="0.34" stop-color="#d5d9d0" stop-opacity="1"/>
			<stop offset="0.96" stop-color="#a6b09a" stop-opacity="1"/>
		</linearGradient>
	</defs>
	<g v:mID="7" v:index="5" v:groupContext="foregroundPage">
		<v:userDefs>
			<v:ud v:nameU="msvThemeOrder" v:val="VT0(0):26"/>
		</v:userDefs>
		<title>CommunicateArchitecture</title>
		<v:pageProperties v:drawingScale="1" v:pageScale="1" v:drawingUnits="19" v:shadowOffsetX="9" v:shadowOffsetY="-9"/>
		<g id="group1-1" transform="translate(19.25,-19.25)" v:mID="1" v:groupContext="group">
			<v:userDefs>
				<v:ud v:nameU="F" v:val="VT0(1):26"/>
				<v:ud v:nameU="Format" v:val="VT0(0):26"/>
				<v:ud v:nameU="ActiveObject" v:prompt="0,0626" v:val="VT0(0):26"/>
			</v:userDefs>
			<title>Package.723</title>
			<g id="shape2-2" v:mID="2" v:groupContext="shape" transform="translate(151.545,0)">
				<title>Sheet.2</title>
				<path d="M0 535.51 L0 65.7 L0 535.51 Z" class="st1"/>
			</g>
			<g id="shape3-5" v:mID="3" v:groupContext="shape">
				<title>Sheet.3</title>
				<path d="M151.55 535.51 L0 535.51 L151.55 535.51 Z" class="st1"/>
			</g>
			<g id="shape4-8" v:mID="4" v:groupContext="shape">
				<title>Sheet.4</title>
				<path d="M151.55 535.51 L0 535.51 L151.55 535.51 Z" class="st1"/>
			</g>
			<g id="shape5-11" v:mID="5" v:groupContext="shape">
				<title>Sheet.5</title>
				<rect x="0" y="65.7035" width="151.545" height="469.81" class="st1"/>
				<rect x="0" y="65.7035" width="151.545" height="469.81" class="st2"/>
			</g>
			<g id="shape6-14" v:mID="6" v:groupContext="shape" transform="translate(0,-469.81)">
				<title>Sheet.6</title>
				<desc>Communicate Architecture</desc>
				<v:userDefs>
					<v:ud v:nameU="TabSize" v:val="VT0(0.125):0"/>
				</v:userDefs>
				<v:textBlock v:margins="rect(4,4,4,4)"/>
				<v:textRect cx="30.7725" cy="521.912" width="61.55" height="27.2035"/>
				<path d="M151.55 535.51 L0 535.51 L151.55 535.51 ZM61.55 535.51 L61.55 508.31 L0 508.31 L0 535.51 L61.55 535.51 ZM0
							 1005.32 L0 535.51 L0 508.31 L0 1005.32 ZM151.55 535.51 L151.55 1005.32 L151.55 535.51 Z" class="st1"/>
				<path d="M61.55 535.51 L61.55 508.31 L0 508.31 L0 535.51" class="st3"/>
				<path d="" class="st3"/>
				<path d="M151.55 1005.32 L151.55 535.51" class="st3"/>
				<path d="M0 1005.32 L0 508.31" class="st3"/>
				<path d="M0 535.51 L151.55 535.51" class="st3"/>
				<path d="M0 535.51 L151.55 535.51" class="st3"/>
				<path d="M0 1005.32 L151.55 1005.32" class="st3"/>
				<text x="7.3" y="519.51" class="st4" v:langID="1031"><v:paragraph v:horizAlign="1"/><v:tabList/>Communicate <tspan
							x="10.37" dy="1.2em" class="st5">Architecture</tspan></text>			</g>
		</g>
		<g id="group47-25" transform="translate(-391.718,158.586) rotate(-90)" v:mID="47" v:groupContext="group">
			<v:userDefs>
				<v:ud v:nameU="F" v:val="VT0(1):26"/>
				<v:ud v:nameU="Format" v:val="VT0(0):26"/>
			</v:userDefs>
			<title>Use Case, Des.Pattern.729</title>
			<g id="shape48-26" v:mID="48" v:groupContext="shape" transform="translate(0,-36)">
				<title>Sheet.48</title>
			</g>
			<g id="shape49-28" v:mID="49" v:groupContext="shape" transform="translate(0,-36)">
				<title>Sheet.49</title>
			</g>
			<g id="shape50-30" v:mID="50" v:groupContext="shape" transform="translate(0,-36)">
				<title>Sheet.50</title>
			</g>
			<g id="shape51-32" v:mID="51" v:groupContext="shape" transform="translate(0,-36)">
				<title>Sheet.51</title>
			</g>
			<g id="shape52-34" v:mID="52" v:groupContext="shape" transform="translate(0,-36)">
				<title>Sheet.52</title>
			</g>
			<g id="shape53-36" v:mID="53" v:groupContext="shape" transform="translate(0,-36)">
				<title>Sheet.53</title>
			</g>
			<g id="shape54-38" v:mID="54" v:groupContext="shape" transform="translate(0,-36)">
				<title>Sheet.54</title>
			</g>
			<g id="shape55-40" v:mID="55" v:groupContext="shape" transform="translate(0,-36)">
				<title>Sheet.55</title>
			</g>
			<g id="shape56-42" v:mID="56" v:groupContext="shape" transform="translate(0,-36)">
				<title>Sheet.56</title>
			</g>
			<g id="shape57-44" v:mID="57" v:groupContext="shape" transform="translate(0,-36)">
				<title>Sheet.57</title>
			</g>
			<g id="shape58-46" v:mID="58" v:groupContext="shape" transform="translate(0,-36)">
				<title>Sheet.58</title>
			</g>
			<g id="shape59-48" v:mID="59" v:groupContext="shape" transform="translate(0,-36)">
				<title>Sheet.59</title>
				<v:textBlock v:margins="rect(4,4,4,4)"/>
			</g>
			<g id="shape60-50" v:mID="60" v:groupContext="shape">
				<title>Sheet.60</title>
			</g>
			<g id="shape61-51" v:mID="61" v:groupContext="shape">
				<title>Sheet.61</title>
			</g>
			<g id="shape62-52" v:mID="62" v:groupContext="shape">
				<title>Sheet.62</title>
			</g>
		</g>
		<g id="group80-53" transform="translate(72.5751,-170)" v:mID="80" v:groupContext="group">
			<v:userDefs>
				<v:ud v:nameU="F" v:val="VT0(1):26"/>
				<v:ud v:nameU="Format" v:val="VT0(0):26"/>
				<v:ud v:nameU="ActiveObject" v:prompt="0,0626" v:val="VT0(0):26"/>
			</v:userDefs>
			<title>Class.2461</title>
			<g id="shape81-54" v:mID="81" v:groupContext="shape" transform="translate(72,1.13687E-013)">
				<title>Sheet.81</title>
				<path d="M0 535.51 L0 499.51 L0 535.51 Z" class="st6"/>
			</g>
			<g id="shape82-59" v:mID="82" v:groupContext="shape">
				<title>Sheet.82</title>
				<path d="M72 535.51 L0 535.51 L72 535.51 Z" class="st6"/>
			</g>
			<g id="shape83-63" v:mID="83" v:groupContext="shape">
				<title>Sheet.83</title>
				<path d="M72 535.51 L0 535.51 L72 535.51 Z" class="st6"/>
			</g>
			<g id="shape84-67" v:mID="84" v:groupContext="shape">
				<title>Sheet.84</title>
				<path d="M72 535.51 L0 535.51 L72 535.51 Z" class="st6"/>
			</g>
			<g id="shape85-71" v:mID="85" v:groupContext="shape">
				<title>Sheet.85</title>
				<desc>Documentation Templates</desc>
				<v:userDefs>
					<v:ud v:nameU="TabSize" v:val="VT0(0.125):0"/>
				</v:userDefs>
				<v:textBlock v:margins="rect(4,4,4,4)"/>
				<v:textRect cx="36" cy="517.514" width="72" height="36"/>
				<path d="M72 535.51 L72 499.51 L0 499.51 L0 535.51 L72 535.51 ZM0 535.51 L0 499.51 L0 535.51 ZM72 499.51 L72 535.51
							 L72 499.51 Z" class="st6"/>
				<path d="M72 535.51 L72 499.51" class="st3"/>
				<path d="M0 535.51 L0 499.51" class="st3"/>
				<path d="M0 499.51 L72 499.51" class="st3"/>
				<path d="M0 535.51 L72 535.51" class="st3"/>
				<text x="10.03" y="515.11" class="st4" v:langID="1031"><v:paragraph v:horizAlign="1"/><v:tabList/>Documentation <tspan
							x="18.36" dy="1.2em" class="st5">Templates</tspan></text>			</g>
		</g>
		<g id="group86-80" transform="translate(-390.938,419.264) rotate(-90)" v:mID="86" v:groupContext="group">
			<v:userDefs>
				<v:ud v:nameU="F" v:val="VT0(1):26"/>
				<v:ud v:nameU="Format" v:val="VT0(0):26"/>
			</v:userDefs>
			<title>Use Case, Des.Pattern.1289</title>
			<g id="shape87-81" v:mID="87" v:groupContext="shape" transform="translate(551.228,559.749) rotate(100.125)">
				<title>Sheet.87</title>
			</g>
			<g id="shape88-83" v:mID="88" v:groupContext="shape" transform="translate(0,-36)">
				<title>Sheet.88</title>
			</g>
			<g id="shape89-85" v:mID="89" v:groupContext="shape" transform="translate(428.558,844.135) rotate(132.51)">
				<title>Sheet.89</title>
			</g>
			<g id="shape90-87" v:mID="90" v:groupContext="shape" transform="translate(0,-36)">
				<title>Sheet.90</title>
			</g>
			<g id="shape91-89" v:mID="91" v:groupContext="shape" transform="translate(0,-36)">
				<title>Sheet.91</title>
			</g>
			<g id="shape92-91" v:mID="92" v:groupContext="shape" transform="translate(0,-36)">
				<title>Sheet.92</title>
			</g>
			<g id="shape93-93" v:mID="93" v:groupContext="shape" transform="translate(0,-36)">
				<title>Sheet.93</title>
			</g>
			<g id="shape94-95" v:mID="94" v:groupContext="shape" transform="translate(0,-36)">
				<title>Sheet.94</title>
			</g>
			<g id="shape95-97" v:mID="95" v:groupContext="shape" transform="translate(0,-36)">
				<title>Sheet.95</title>
			</g>
			<g id="shape96-99" v:mID="96" v:groupContext="shape" transform="translate(0,-36)">
				<title>Sheet.96</title>
			</g>
			<g id="shape97-101" v:mID="97" v:groupContext="shape" transform="translate(0,-36)">
				<title>Sheet.97</title>
			</g>
			<g id="shape98-103" v:mID="98" v:groupContext="shape" transform="translate(0,-36)">
				<title>Sheet.98</title>
				<v:textBlock v:margins="rect(4,4,4,4)"/>
			</g>
			<g id="shape99-105" v:mID="99" v:groupContext="shape">
				<title>Sheet.99</title>
			</g>
			<g id="shape100-106" v:mID="100" v:groupContext="shape">
				<title>Sheet.100</title>
			</g>
			<g id="shape101-107" v:mID="101" v:groupContext="shape">
				<title>Sheet.101</title>
				<desc>Incremental</desc>
				<v:textBlock v:margins="rect(4,4,4,4)"/>
				<v:textRect cx="18" cy="499.514" width="72" height="36" transform="rotate(90)"/>
				<path d="M0 499.51 A18 36 0 1 1 36 499.51 A18 36 0 1 1 0 499.51 Z" class="st7"/>
				<text x="479.29" y="-15.6" transform="rotate(90)" class="st4" v:langID="1031"><v:paragraph v:horizAlign="1"/><v:tabList/>Incremental</text>			</g>
			<g id="shape102-111" v:mID="102" v:groupContext="shape">
				<title>Sheet.102</title>
			</g>
		</g>
		<g id="group265-112" transform="translate(72.5751,-360)" v:mID="265" v:groupContext="group">
			<v:userDefs>
				<v:ud v:nameU="F" v:val="VT0(1):26"/>
				<v:ud v:nameU="Format" v:val="VT0(0):26"/>
				<v:ud v:nameU="ActiveObject" v:prompt="0,0626" v:val="VT0(0):26"/>
			</v:userDefs>
			<title>Class.1890</title>
			<g id="shape266-113" v:mID="266" v:groupContext="shape" transform="translate(72,1.13687E-013)">
				<title>Sheet.266</title>
				<path d="M0 535.51 L0 499.51 L0 535.51 Z" class="st6"/>
			</g>
			<g id="shape267-117" v:mID="267" v:groupContext="shape">
				<title>Sheet.267</title>
				<path d="M72 535.51 L0 535.51 L72 535.51 Z" class="st6"/>
			</g>
			<g id="shape268-121" v:mID="268" v:groupContext="shape">
				<title>Sheet.268</title>
				<path d="M72 535.51 L0 535.51 L72 535.51 Z" class="st6"/>
			</g>
			<g id="shape269-125" v:mID="269" v:groupContext="shape">
				<title>Sheet.269</title>
				<path d="M72 535.51 L0 535.51 L72 535.51 Z" class="st6"/>
			</g>
			<g id="shape270-129" v:mID="270" v:groupContext="shape">
				<title>Sheet.270</title>
				<desc>Context View</desc>
				<v:userDefs>
					<v:ud v:nameU="TabSize" v:val="VT0(0.125):0"/>
				</v:userDefs>
				<v:textBlock v:margins="rect(4,4,4,4)"/>
				<v:textRect cx="36" cy="517.514" width="72" height="36"/>
				<path d="M72 535.51 L72 499.51 L0 499.51 L0 535.51 L72 535.51 ZM0 535.51 L0 499.51 L0 535.51 ZM72 499.51 L72 535.51
							 L72 499.51 Z" class="st6"/>
				<path d="M72 535.51 L72 499.51" class="st3"/>
				<path d="M0 535.51 L0 499.51" class="st3"/>
				<path d="M0 499.51 L72 499.51" class="st3"/>
				<path d="M0 535.51 L72 535.51" class="st3"/>
				<text x="14.37" y="519.91" class="st8" v:langID="1031"><v:paragraph v:horizAlign="1"/><v:tabList/>Context View</text>			</g>
		</g>
		<g id="group271-137" transform="translate(72.5751,-314)" v:mID="271" v:groupContext="group">
			<v:userDefs>
				<v:ud v:nameU="F" v:val="VT0(1):26"/>
				<v:ud v:nameU="Format" v:val="VT0(0):26"/>
				<v:ud v:nameU="ActiveObject" v:prompt="0,0626" v:val="VT0(0):26"/>
			</v:userDefs>
			<title>Class.1896</title>
			<g id="shape272-138" v:mID="272" v:groupContext="shape" transform="translate(72,1.13687E-013)">
				<title>Sheet.272</title>
				<path d="M0 535.51 L0 499.51 L0 535.51 Z" class="st6"/>
			</g>
			<g id="shape273-142" v:mID="273" v:groupContext="shape">
				<title>Sheet.273</title>
				<path d="M72 535.51 L0 535.51 L72 535.51 Z" class="st6"/>
			</g>
			<g id="shape274-146" v:mID="274" v:groupContext="shape">
				<title>Sheet.274</title>
				<path d="M72 535.51 L0 535.51 L72 535.51 Z" class="st6"/>
			</g>
			<g id="shape275-150" v:mID="275" v:groupContext="shape">
				<title>Sheet.275</title>
				<path d="M72 535.51 L0 535.51 L72 535.51 Z" class="st6"/>
			</g>
			<g id="shape276-154" v:mID="276" v:groupContext="shape">
				<title>Sheet.276</title>
				<desc>Building Block View</desc>
				<v:userDefs>
					<v:ud v:nameU="TabSize" v:val="VT0(0.125):0"/>
				</v:userDefs>
				<v:textBlock v:margins="rect(4,4,4,4)"/>
				<v:textRect cx="36" cy="517.514" width="72" height="36"/>
				<path d="M72 535.51 L72 499.51 L0 499.51 L0 535.51 L72 535.51 ZM0 535.51 L0 499.51 L0 535.51 ZM72 499.51 L72 535.51
							 L72 499.51 Z" class="st6"/>
				<path d="M72 535.51 L72 499.51" class="st3"/>
				<path d="M0 535.51 L0 499.51" class="st3"/>
				<path d="M0 499.51 L72 499.51" class="st3"/>
				<path d="M0 535.51 L72 535.51" class="st3"/>
				<text x="12.06" y="515.11" class="st8" v:langID="1031"><v:paragraph v:horizAlign="1"/><v:tabList/>Building Block<v:newlineChar/><tspan
							x="28.19" dy="1.2em" class="st5">View</tspan></text>			</g>
		</g>
		<g id="group277-163" transform="translate(72.5751,-224)" v:mID="277" v:groupContext="group">
			<v:userDefs>
				<v:ud v:nameU="F" v:val="VT0(1):26"/>
				<v:ud v:nameU="Format" v:val="VT0(0):26"/>
				<v:ud v:nameU="ActiveObject" v:prompt="0,0626" v:val="VT0(0):26"/>
			</v:userDefs>
			<title>Class.1902</title>
			<g id="shape278-164" v:mID="278" v:groupContext="shape" transform="translate(72,1.13687E-013)">
				<title>Sheet.278</title>
				<path d="M0 535.51 L0 499.51 L0 535.51 Z" class="st6"/>
			</g>
			<g id="shape279-168" v:mID="279" v:groupContext="shape">
				<title>Sheet.279</title>
				<path d="M72 535.51 L0 535.51 L72 535.51 Z" class="st6"/>
			</g>
			<g id="shape280-172" v:mID="280" v:groupContext="shape">
				<title>Sheet.280</title>
				<path d="M72 535.51 L0 535.51 L72 535.51 Z" class="st6"/>
			</g>
			<g id="shape281-176" v:mID="281" v:groupContext="shape">
				<title>Sheet.281</title>
				<path d="M72 535.51 L0 535.51 L72 535.51 Z" class="st6"/>
			</g>
			<g id="shape282-180" v:mID="282" v:groupContext="shape">
				<title>Sheet.282</title>
				<desc>Deployment View</desc>
				<v:userDefs>
					<v:ud v:nameU="TabSize" v:val="VT0(0.125):0"/>
				</v:userDefs>
				<v:textBlock v:margins="rect(4,4,4,4)"/>
				<v:textRect cx="36" cy="517.514" width="72" height="36"/>
				<path d="M72 535.51 L72 499.51 L0 499.51 L0 535.51 L72 535.51 ZM0 535.51 L0 499.51 L0 535.51 ZM72 499.51 L72 535.51
							 L72 499.51 Z" class="st6"/>
				<path d="M72 535.51 L72 499.51" class="st3"/>
				<path d="M0 535.51 L0 499.51" class="st3"/>
				<path d="M0 499.51 L72 499.51" class="st3"/>
				<path d="M0 535.51 L72 535.51" class="st3"/>
				<text x="6.97" y="519.91" class="st8" v:langID="1031"><v:paragraph v:horizAlign="1"/><v:tabList/>Deployment View</text>			</g>
		</g>
		<g id="group283-188" transform="translate(72.5751,-269)" v:mID="283" v:groupContext="group">
			<v:userDefs>
				<v:ud v:nameU="F" v:val="VT0(1):26"/>
				<v:ud v:nameU="Format" v:val="VT0(0):26"/>
				<v:ud v:nameU="ActiveObject" v:prompt="0,0626" v:val="VT0(0):26"/>
			</v:userDefs>
			<title>Class.1908</title>
			<g id="shape284-189" v:mID="284" v:groupContext="shape" transform="translate(72,1.13687E-013)">
				<title>Sheet.284</title>
				<path d="M0 535.51 L0 499.51 L0 535.51 Z" class="st6"/>
			</g>
			<g id="shape285-193" v:mID="285" v:groupContext="shape">
				<title>Sheet.285</title>
				<path d="M72 535.51 L0 535.51 L72 535.51 Z" class="st6"/>
			</g>
			<g id="shape286-197" v:mID="286" v:groupContext="shape">
				<title>Sheet.286</title>
				<path d="M72 535.51 L0 535.51 L72 535.51 Z" class="st6"/>
			</g>
			<g id="shape287-201" v:mID="287" v:groupContext="shape">
				<title>Sheet.287</title>
				<path d="M72 535.51 L0 535.51 L72 535.51 Z" class="st6"/>
			</g>
			<g id="shape288-205" v:mID="288" v:groupContext="shape">
				<title>Sheet.288</title>
				<desc>Runtime View</desc>
				<v:userDefs>
					<v:ud v:nameU="TabSize" v:val="VT0(0.125):0"/>
				</v:userDefs>
				<v:textBlock v:margins="rect(4,4,4,4)"/>
				<v:textRect cx="36" cy="517.514" width="72" height="36"/>
				<path d="M72 535.51 L72 499.51 L0 499.51 L0 535.51 L72 535.51 ZM0 535.51 L0 499.51 L0 535.51 ZM72 499.51 L72 535.51
							 L72 499.51 Z" class="st6"/>
				<path d="M72 535.51 L72 499.51" class="st3"/>
				<path d="M0 535.51 L0 499.51" class="st3"/>
				<path d="M0 499.51 L72 499.51" class="st3"/>
				<path d="M0 535.51 L72 535.51" class="st3"/>
				<text x="12.9" y="519.91" class="st8" v:langID="1031"><v:paragraph v:horizAlign="1"/><v:tabList/>Runtime View</text>			</g>
		</g>
		<g id="group309-213" transform="translate(73.7092,-332)" v:mID="309" v:groupContext="group">
			<v:userDefs>
				<v:ud v:nameU="BeginAngle" v:prompt="" v:val="VT0(0):32"/>
				<v:ud v:nameU="EndAngle" v:prompt="" v:val="VT0(1.5707963267949):32"/>
				<v:ud v:nameU="RealBeginX" v:val="VT0(0):1"/>
				<v:ud v:nameU="RealBeginY" v:val="VT0(0):1"/>
				<v:ud v:nameU="EndX" v:val="VT0(-1):1"/>
				<v:ud v:nameU="EndY" v:val="VT0(-0.375):1"/>
				<v:ud v:nameU="BeginArrowSize" v:val="VT0(0.17333333333333):29"/>
				<v:ud v:nameU="EndSize" v:val="VT0(0.17333333333333):29"/>
				<v:ud v:nameU="FillColor" v:prompt="Association = 0, Composition = 2, Aggregation = 1, Namespace = 3"
						v:val="VT0(0):26"/>
				<v:ud v:nameU="Navigability" v:prompt="Position of first &#60;--- or -X----" v:val="VT0(0):1"/>
				<v:ud v:nameU="NonNavigability" v:prompt="Position of first &#60;--- or -X----" v:val="VT0(0):1"/>
				<v:ud v:nameU="BeginArrow" v:prompt="No Arrow = 0, Arrow = 1" v:val="VT0(0):26"/>
				<v:ud v:nameU="SetBeginArrow" v:val="VT0(0):26"/>
				<v:ud v:nameU="SetEndArrow" v:val="VT0(0):26"/>
				<v:ud v:nameU="BeginDot" v:prompt="No Dot = 0; Dot = 1" v:val="VT0(0):26"/>
				<v:ud v:nameU="SetBeginArrow42" v:val="VT0(0):26"/>
				<v:ud v:nameU="BeginAngle" v:prompt="" v:val="VT0(3.1415926535898):32"/>
				<v:ud v:nameU="RealBeginX" v:prompt="" v:val="VT0(-0.01575162074509):1"/>
				<v:ud v:nameU="EndX" v:prompt="" v:val="VT0(0.23424837925491):1"/>
				<v:ud v:nameU="EndY" v:prompt="" v:val="VT0(-1.3923611111111):1"/>
				<v:ud v:nameU="BeginArrowSize" v:prompt="" v:val="VT0(0.21555555555556):29"/>
				<v:ud v:nameU="EndSize" v:prompt="" v:val="VT0(0.21555555555556):29"/>
				<v:ud v:nameU="Navigability" v:prompt="" v:val="VT0(-0.01575162074509):1"/>
			</v:userDefs>
			<title>Routable Relationship.2099</title>
			<g id="shape310-214" v:mID="310" v:groupContext="shape" transform="translate(-30.7206,-79.1244)">
				<title>Sheet.310</title>
				<path d="M0 535.51 L2.25 535.51 L2.25 533.26 L0 533.26 L0 535.51 Z" class="st9"/>
			</g>
			<g id="shape311-217" v:mID="311" v:groupContext="shape" transform="translate(-18.4683,7.4268)">
				<title>Sheet.311</title>
				<path d="M0 535.51 L2.25 535.51 L2.25 533.26 L0 533.26 L0 535.51 Z" class="st9"/>
			</g>
			<g id="shape312-220" v:mID="312" v:groupContext="shape" transform="translate(-18.4683,-5.1732)">
				<title>Sheet.312</title>
				<path d="M0 535.51 L2.25 535.51 L2.25 533.26 L0 533.26 L0 535.51 Z" class="st9"/>
			</g>
			<g id="shape313-223" v:mID="313" v:groupContext="shape" transform="translate(-5.26476,-79.1244)">
				<title>Sheet.313</title>
				<path d="M0 535.51 L2.25 535.51 L2.25 533.26 L0 533.26 L0 535.51 Z" class="st9"/>
			</g>
			<g id="shape309-226" v:mID="309" v:groupContext="groupContent">
				<path d="M-1.13 535.51 L-16.87 535.51 L-16.87 435.26" class="st10"/>
			</g>
		</g>
		<g id="group314-229" transform="translate(73.7092,-242)" v:mID="314" v:groupContext="group">
			<v:userDefs>
				<v:ud v:nameU="BeginAngle" v:prompt="" v:val="VT0(0):32"/>
				<v:ud v:nameU="EndAngle" v:prompt="" v:val="VT0(1.5707963267949):32"/>
				<v:ud v:nameU="RealBeginX" v:val="VT0(0):1"/>
				<v:ud v:nameU="RealBeginY" v:val="VT0(0):1"/>
				<v:ud v:nameU="EndX" v:val="VT0(-1):1"/>
				<v:ud v:nameU="EndY" v:val="VT0(-0.375):1"/>
				<v:ud v:nameU="BeginArrowSize" v:val="VT0(0.17333333333333):29"/>
				<v:ud v:nameU="EndSize" v:val="VT0(0.17333333333333):29"/>
				<v:ud v:nameU="FillColor" v:prompt="Association = 0, Composition = 2, Aggregation = 1, Namespace = 3"
						v:val="VT0(0):26"/>
				<v:ud v:nameU="Navigability" v:prompt="Position of first &#60;--- or -X----" v:val="VT0(0):1"/>
				<v:ud v:nameU="NonNavigability" v:prompt="Position of first &#60;--- or -X----" v:val="VT0(0):1"/>
				<v:ud v:nameU="BeginArrow" v:prompt="No Arrow = 0, Arrow = 1" v:val="VT0(0):26"/>
				<v:ud v:nameU="SetBeginArrow" v:val="VT0(0):26"/>
				<v:ud v:nameU="SetEndArrow" v:val="VT0(0):26"/>
				<v:ud v:nameU="BeginDot" v:prompt="No Dot = 0; Dot = 1" v:val="VT0(0):26"/>
				<v:ud v:nameU="SetBeginArrow42" v:val="VT0(0):26"/>
				<v:ud v:nameU="BeginAngle" v:prompt="" v:val="VT0(-3.1415926535898):32"/>
				<v:ud v:nameU="RealBeginX" v:prompt="" v:val="VT0(-0.01575162074509):1"/>
				<v:ud v:nameU="EndX" v:prompt="" v:val="VT0(0.23424837925491):1"/>
				<v:ud v:nameU="EndY" v:prompt="" v:val="VT0(-2.6423611111111):1"/>
				<v:ud v:nameU="BeginArrowSize" v:prompt="" v:val="VT0(0.21555555555556):29"/>
				<v:ud v:nameU="EndSize" v:prompt="" v:val="VT0(0.21555555555556):29"/>
				<v:ud v:nameU="Navigability" v:prompt="" v:val="VT0(-0.01575162074509):1"/>
			</v:userDefs>
			<title>Routable Relationship.2109</title>
			<g id="shape315-230" v:mID="315" v:groupContext="shape" transform="translate(-30.7206,-171.409)">
				<title>Sheet.315</title>
				<path d="M0 535.51 L2.25 535.51 L2.25 533.26 L0 533.26 L0 535.51 Z" class="st9"/>
			</g>
			<g id="shape316-233" v:mID="316" v:groupContext="shape" transform="translate(-21.1683,7.4268)">
				<title>Sheet.316</title>
				<path d="M0 535.51 L2.25 535.51 L2.25 533.26 L0 533.26 L0 535.51 Z" class="st9"/>
			</g>
			<g id="shape317-236" v:mID="317" v:groupContext="shape" transform="translate(-21.1683,-5.1732)">
				<title>Sheet.317</title>
				<path d="M0 535.51 L2.25 535.51 L2.25 533.26 L0 533.26 L0 535.51 Z" class="st9"/>
			</g>
			<g id="shape318-239" v:mID="318" v:groupContext="shape" transform="translate(-5.26476,-171.409)">
				<title>Sheet.318</title>
				<path d="M0 535.51 L2.25 535.51 L2.25 533.26 L0 533.26 L0 535.51 Z" class="st9"/>
			</g>
			<g id="shape314-242" v:mID="314" v:groupContext="groupContent">
				<path d="M-1.13 535.51 L-16.87 535.51 L-16.87 345.26" class="st10"/>
			</g>
		</g>
		<g id="group319-245" transform="translate(55.7092,-432.25)" v:mID="319" v:groupContext="group">
			<v:userDefs>
				<v:ud v:nameU="BeginAngle" v:prompt="" v:val="VT0(0):32"/>
				<v:ud v:nameU="EndAngle" v:prompt="" v:val="VT0(1.5707963267949):32"/>
				<v:ud v:nameU="RealBeginX" v:val="VT0(0):1"/>
				<v:ud v:nameU="RealBeginY" v:val="VT0(0):1"/>
				<v:ud v:nameU="EndX" v:val="VT0(-1):1"/>
				<v:ud v:nameU="EndY" v:val="VT0(-0.375):1"/>
				<v:ud v:nameU="BeginArrowSize" v:val="VT0(0.17333333333333):29"/>
				<v:ud v:nameU="EndSize" v:val="VT0(0.17333333333333):29"/>
				<v:ud v:nameU="FillColor" v:prompt="Association = 0, Composition = 2, Aggregation = 1, Namespace = 3"
						v:val="VT0(0):26"/>
				<v:ud v:nameU="Navigability" v:prompt="Position of first &#60;--- or -X----" v:val="VT0(0):1"/>
				<v:ud v:nameU="NonNavigability" v:prompt="Position of first &#60;--- or -X----" v:val="VT0(0):1"/>
				<v:ud v:nameU="BeginArrow" v:prompt="No Arrow = 0, Arrow = 1" v:val="VT0(0):26"/>
				<v:ud v:nameU="SetBeginArrow" v:val="VT0(0):26"/>
				<v:ud v:nameU="SetEndArrow" v:val="VT0(0):26"/>
				<v:ud v:nameU="BeginDot" v:prompt="No Dot = 0; Dot = 1" v:val="VT0(0):26"/>
				<v:ud v:nameU="SetBeginArrow42" v:val="VT0(0):26"/>
				<v:ud v:nameU="BeginAngle" v:prompt="" v:val="VT0(-1.5707963267949):32"/>
				<v:ud v:nameU="EndAngle" v:prompt="" v:val="VT0(-1.4592283303259):32"/>
				<v:ud v:nameU="RealBeginX" v:prompt="" v:val="VT0(0.01575162074509):1"/>
				<v:ud v:nameU="EndX" v:prompt="" v:val="VT0(-0.23424837925491):1"/>
				<v:ud v:nameU="EndY" v:prompt="" v:val="VT0(2.0173611111111):1"/>
				<v:ud v:nameU="BeginArrowSize" v:prompt="" v:val="VT0(0.21555555555556):29"/>
				<v:ud v:nameU="EndSize" v:prompt="" v:val="VT0(0.21555555555556):29"/>
				<v:ud v:nameU="Navigability" v:prompt="" v:val="VT0(0.01575162074509):1"/>
			</v:userDefs>
			<title>Routable Relationship.2114</title>
			<g id="shape320-246" v:mID="320" v:groupContext="shape" transform="translate(11.239,-5.58925)">
				<title>Sheet.320</title>
				<path d="M0 535.51 L2.25 535.51 L2.25 533.26 L0 533.26 L0 535.51 Z" class="st9"/>
			</g>
			<g id="shape321-249" v:mID="321" v:groupContext="shape" transform="translate(12.7352,16.8682)">
				<title>Sheet.321</title>
				<path d="M0 535.51 L2.25 535.51 L2.25 533.26 L0 533.26 L0 535.51 Z" class="st9"/>
			</g>
			<g id="shape322-252" v:mID="322" v:groupContext="shape" transform="translate(-12.7206,16.8682)">
				<title>Sheet.322</title>
				<path d="M0 535.51 L2.25 535.51 L2.25 533.26 L0 533.26 L0 535.51 Z" class="st9"/>
			</g>
			<g id="shape323-255" v:mID="323" v:groupContext="shape" transform="translate(-14.0586,-4.1864)">
				<title>Sheet.323</title>
				<path d="M0 535.51 L2.25 535.51 L2.25 533.26 L0 533.26 L0 535.51 Z" class="st9"/>
			</g>
			<g id="shape319-258" v:mID="319" v:groupContext="groupContent">
				<path d="M1.13 535.51 L1.13 680.76 L16.87 680.76" class="st10"/>
			</g>
		</g>
		<g id="group324-261" transform="translate(73.7092,-378)" v:mID="324" v:groupContext="group">
			<v:userDefs>
				<v:ud v:nameU="BeginAngle" v:prompt="" v:val="VT0(0):32"/>
				<v:ud v:nameU="EndAngle" v:prompt="" v:val="VT0(1.5707963267949):32"/>
				<v:ud v:nameU="RealBeginX" v:val="VT0(0):1"/>
				<v:ud v:nameU="RealBeginY" v:val="VT0(0):1"/>
				<v:ud v:nameU="EndX" v:val="VT0(-1):1"/>
				<v:ud v:nameU="EndY" v:val="VT0(-0.375):1"/>
				<v:ud v:nameU="BeginArrowSize" v:val="VT0(0.17333333333333):29"/>
				<v:ud v:nameU="EndSize" v:val="VT0(0.17333333333333):29"/>
				<v:ud v:nameU="FillColor" v:prompt="Association = 0, Composition = 2, Aggregation = 1, Namespace = 3"
						v:val="VT0(0):26"/>
				<v:ud v:nameU="Navigability" v:prompt="Position of first &#60;--- or -X----" v:val="VT0(0):1"/>
				<v:ud v:nameU="NonNavigability" v:prompt="Position of first &#60;--- or -X----" v:val="VT0(0):1"/>
				<v:ud v:nameU="BeginArrow" v:prompt="No Arrow = 0, Arrow = 1" v:val="VT0(0):26"/>
				<v:ud v:nameU="SetBeginArrow" v:val="VT0(0):26"/>
				<v:ud v:nameU="SetEndArrow" v:val="VT0(0):26"/>
				<v:ud v:nameU="BeginDot" v:prompt="No Dot = 0; Dot = 1" v:val="VT0(0):26"/>
				<v:ud v:nameU="SetBeginArrow42" v:val="VT0(0):26"/>
				<v:ud v:nameU="BeginAngle" v:prompt="" v:val="VT0(3.1415926535898):32"/>
				<v:ud v:nameU="RealBeginX" v:prompt="" v:val="VT0(-0.01575162074509):1"/>
				<v:ud v:nameU="EndX" v:prompt="" v:val="VT0(0.23424837925491):1"/>
				<v:ud v:nameU="EndY" v:prompt="" v:val="VT0(-0.75347222222222):1"/>
				<v:ud v:nameU="BeginArrowSize" v:prompt="" v:val="VT0(0.21555555555556):29"/>
				<v:ud v:nameU="EndSize" v:prompt="" v:val="VT0(0.21555555555556):29"/>
				<v:ud v:nameU="Navigability" v:prompt="" v:val="VT0(-0.01575162074509):1"/>
			</v:userDefs>
			<title>Routable Relationship.2124</title>
			<g id="shape325-262" v:mID="325" v:groupContext="shape" transform="translate(-30.7206,-40.1118)">
				<title>Sheet.325</title>
				<path d="M0 535.51 L2.25 535.51 L2.25 533.26 L0 533.26 L0 535.51 Z" class="st9"/>
			</g>
			<g id="shape326-265" v:mID="326" v:groupContext="shape" transform="translate(-17.0883,7.4268)">
				<title>Sheet.326</title>
				<path d="M0 535.51 L2.25 535.51 L2.25 533.26 L0 533.26 L0 535.51 Z" class="st9"/>
			</g>
			<g id="shape327-268" v:mID="327" v:groupContext="shape" transform="translate(-17.0883,-5.1732)">
				<title>Sheet.327</title>
				<path d="M0 535.51 L2.25 535.51 L2.25 533.26 L0 533.26 L0 535.51 Z" class="st9"/>
			</g>
			<g id="shape328-271" v:mID="328" v:groupContext="shape" transform="translate(-5.26476,-40.1118)">
				<title>Sheet.328</title>
				<path d="M0 535.51 L2.25 535.51 L2.25 533.26 L0 533.26 L0 535.51 Z" class="st9"/>
			</g>
			<g id="shape324-274" v:mID="324" v:groupContext="groupContent">
				<path d="M-1.13 535.51 L-16.87 535.51 L-16.87 481.26" class="st10"/>
			</g>
		</g>
		<g id="group329-277" transform="translate(73.7092,-188)" v:mID="329" v:groupContext="group">
			<v:userDefs>
				<v:ud v:nameU="BeginAngle" v:prompt="" v:val="VT0(0):32"/>
				<v:ud v:nameU="EndAngle" v:prompt="" v:val="VT0(1.5707963267949):32"/>
				<v:ud v:nameU="RealBeginX" v:val="VT0(0):1"/>
				<v:ud v:nameU="RealBeginY" v:val="VT0(0):1"/>
				<v:ud v:nameU="EndX" v:val="VT0(-1):1"/>
				<v:ud v:nameU="EndY" v:val="VT0(-0.375):1"/>
				<v:ud v:nameU="BeginArrowSize" v:val="VT0(0.17333333333333):29"/>
				<v:ud v:nameU="EndSize" v:val="VT0(0.17333333333333):29"/>
				<v:ud v:nameU="FillColor" v:prompt="Association = 0, Composition = 2, Aggregation = 1, Namespace = 3"
						v:val="VT0(0):26"/>
				<v:ud v:nameU="Navigability" v:prompt="Position of first &#60;--- or -X----" v:val="VT0(0):1"/>
				<v:ud v:nameU="NonNavigability" v:prompt="Position of first &#60;--- or -X----" v:val="VT0(0):1"/>
				<v:ud v:nameU="BeginArrow" v:prompt="No Arrow = 0, Arrow = 1" v:val="VT0(0):26"/>
				<v:ud v:nameU="SetBeginArrow" v:val="VT0(0):26"/>
				<v:ud v:nameU="SetEndArrow" v:val="VT0(0):26"/>
				<v:ud v:nameU="BeginDot" v:prompt="No Dot = 0; Dot = 1" v:val="VT0(0):26"/>
				<v:ud v:nameU="SetBeginArrow42" v:val="VT0(0):26"/>
				<v:ud v:nameU="BeginAngle" v:prompt="" v:val="VT0(3.1415926535898):32"/>
				<v:ud v:nameU="RealBeginX" v:prompt="" v:val="VT0(-0.015751620745089):1"/>
				<v:ud v:nameU="EndX" v:prompt="" v:val="VT0(0.23424837925491):1"/>
				<v:ud v:nameU="EndY" v:prompt="" v:val="VT0(-3.3923611111111):1"/>
				<v:ud v:nameU="BeginArrowSize" v:prompt="" v:val="VT0(0.21555555555556):29"/>
				<v:ud v:nameU="EndSize" v:prompt="" v:val="VT0(0.21555555555556):29"/>
				<v:ud v:nameU="Navigability" v:prompt="" v:val="VT0(-0.015751620745089):1"/>
			</v:userDefs>
			<title>Routable Relationship.2129</title>
			<g id="shape330-278" v:mID="330" v:groupContext="shape" transform="translate(-30.7206,-143.905)">
				<title>Sheet.330</title>
				<path d="M0 535.51 L2.25 535.51 L2.25 533.26 L0 533.26 L0 535.51 Z" class="st9"/>
			</g>
			<g id="shape331-281" v:mID="331" v:groupContext="shape" transform="translate(-22.7883,7.4268)">
				<title>Sheet.331</title>
				<path d="M0 535.51 L2.25 535.51 L2.25 533.26 L0 533.26 L0 535.51 Z" class="st9"/>
			</g>
			<g id="shape332-284" v:mID="332" v:groupContext="shape" transform="translate(-22.7883,-5.1732)">
				<title>Sheet.332</title>
				<path d="M0 535.51 L2.25 535.51 L2.25 533.26 L0 533.26 L0 535.51 Z" class="st9"/>
			</g>
			<g id="shape333-287" v:mID="333" v:groupContext="shape" transform="translate(-5.26476,-143.905)">
				<title>Sheet.333</title>
				<path d="M0 535.51 L2.25 535.51 L2.25 533.26 L0 533.26 L0 535.51 Z" class="st9"/>
			</g>
			<g id="shape329-290" v:mID="329" v:groupContext="groupContent">
				<path d="M-1.13 535.51 L-16.87 535.51 L-16.87 291.26" class="st10"/>
			</g>
		</g>
		<g id="group334-293" transform="translate(38.8433,-432.25)" v:mID="334" v:groupContext="group">
			<v:userDefs>
				<v:ud v:nameU="F" v:val="VT0(1):26"/>
				<v:ud v:nameU="Format" v:val="VT0(0):26"/>
				<v:ud v:nameU="ActiveObject" v:prompt="0,0626" v:val="VT0(0):26"/>
				<v:ud v:nameU="ActiveObject" v:prompt="" v:val="VT4(0,0626)"/>
			</v:userDefs>
			<title>Class.2232</title>
			<g id="shape335-294" v:mID="335" v:groupContext="shape" transform="translate(67.4928,1.13687E-013)">
				<title>Sheet.335</title>
				<path d="M0 535.51 L0 499.51 L0 535.51 Z" class="st11"/>
			</g>
			<g id="shape336-297" v:mID="336" v:groupContext="shape" transform="translate(4.5072,0)">
				<title>Sheet.336</title>
				<path d="M62.99 535.51 L0 535.51 L62.99 535.51 Z" class="st11"/>
			</g>
			<g id="shape337-300" v:mID="337" v:groupContext="shape" transform="translate(4.5072,0)">
				<title>Sheet.337</title>
				<path d="M62.99 535.51 L0 535.51 L62.99 535.51 Z" class="st11"/>
			</g>
			<g id="shape338-303" v:mID="338" v:groupContext="shape" transform="translate(4.5072,0)">
				<title>Sheet.338</title>
				<path d="M62.99 535.51 L0 535.51 L62.99 535.51 Z" class="st11"/>
			</g>
			<g id="shape339-306" v:mID="339" v:groupContext="shape" transform="translate(4.5072,0)">
				<title>Sheet.339</title>
				<desc>Documentation</desc>
				<v:userDefs>
					<v:ud v:nameU="TabSize" v:val="VT0(0.125):0"/>
				</v:userDefs>
				<v:textBlock v:margins="rect(4,4,4,4)"/>
				<v:textRect cx="31.4928" cy="517.514" width="62.99" height="36"/>
				<path d="M62.99 535.51 L62.99 499.51 L0 499.51 L0 535.51 L62.99 535.51 ZM-4.51 499.51 L0 499.51 L-4.51 499.51 ZM-4.51
							 535.51 L0 535.51 L0 499.51 L-4.51 499.51 L-4.51 535.51 ZM67.49 499.51 L62.99 499.51 L62.99 535.51 L67.49
							 535.51 L67.49 499.51 Z" class="st11"/>
				<path d="M-4.51 499.51 L0 499.51" class="st12"/>
				<path d="" class="st12"/>
				<path d="M-4.51 535.51 L0 535.51 L0 499.51 L-4.51 499.51" class="st12"/>
				<path d="" class="st12"/>
				<path d="M67.49 499.51 L62.99 499.51 L62.99 535.51 L67.49 535.51" class="st12"/>
				<path d="" class="st12"/>
				<path d="M67.49 535.51 L67.49 499.51" class="st12"/>
				<path d="M-4.51 535.51 L-4.51 499.51" class="st12"/>
				<path d="M0 499.51 L67.49 499.51" class="st12"/>
				<path d="M0 535.51 L62.99 535.51" class="st12"/>
				<text x="5.53" y="519.91" class="st13" v:langID="1031"><v:paragraph v:horizAlign="1"/><v:tabList/>Documentation</text>			</g>
		</g>
		<g id="group340-319" transform="translate(73.7092,-134.25)" v:mID="340" v:groupContext="group">
			<v:userDefs>
				<v:ud v:nameU="BeginAngle" v:prompt="" v:val="VT0(0):32"/>
				<v:ud v:nameU="EndAngle" v:prompt="" v:val="VT0(1.5707963267949):32"/>
				<v:ud v:nameU="RealBeginX" v:val="VT0(0):1"/>
				<v:ud v:nameU="RealBeginY" v:val="VT0(0):1"/>
				<v:ud v:nameU="EndX" v:val="VT0(-1):1"/>
				<v:ud v:nameU="EndY" v:val="VT0(-0.375):1"/>
				<v:ud v:nameU="BeginArrowSize" v:val="VT0(0.17333333333333):29"/>
				<v:ud v:nameU="EndSize" v:val="VT0(0.17333333333333):29"/>
				<v:ud v:nameU="FillColor" v:prompt="Association = 0, Composition = 2, Aggregation = 1, Namespace = 3"
						v:val="VT0(0):26"/>
				<v:ud v:nameU="Navigability" v:prompt="Position of first &#60;--- or -X----" v:val="VT0(0):1"/>
				<v:ud v:nameU="NonNavigability" v:prompt="Position of first &#60;--- or -X----" v:val="VT0(0):1"/>
				<v:ud v:nameU="BeginArrow" v:prompt="No Arrow = 0, Arrow = 1" v:val="VT0(0):26"/>
				<v:ud v:nameU="SetBeginArrow" v:val="VT0(0):26"/>
				<v:ud v:nameU="SetEndArrow" v:val="VT0(0):26"/>
				<v:ud v:nameU="BeginDot" v:prompt="No Dot = 0; Dot = 1" v:val="VT0(0):26"/>
				<v:ud v:nameU="SetBeginArrow42" v:val="VT0(0):26"/>
				<v:ud v:nameU="BeginAngle" v:prompt="" v:val="VT0(-3.1415926535898):32"/>
				<v:ud v:nameU="RealBeginX" v:prompt="" v:val="VT0(-0.015751620745089):1"/>
				<v:ud v:nameU="EndX" v:prompt="" v:val="VT0(0.23424837925491):1"/>
				<v:ud v:nameU="EndY" v:prompt="" v:val="VT0(-4.1388888888889):1"/>
				<v:ud v:nameU="BeginArrowSize" v:prompt="" v:val="VT0(0.21555555555556):29"/>
				<v:ud v:nameU="EndSize" v:prompt="" v:val="VT0(0.21555555555556):29"/>
				<v:ud v:nameU="Navigability" v:prompt="" v:val="VT0(-0.015751620745089):1"/>
			</v:userDefs>
			<title>Routable Relationship.2248</title>
			<g id="shape341-320" v:mID="341" v:groupContext="shape" transform="translate(-30.7206,-276.549)">
				<title>Sheet.341</title>
				<path d="M0 535.51 L2.25 535.51 L2.25 533.26 L0 533.26 L0 535.51 Z" class="st9"/>
			</g>
			<g id="shape342-323" v:mID="342" v:groupContext="shape" transform="translate(-24.4008,7.4268)">
				<title>Sheet.342</title>
				<path d="M0 535.51 L2.25 535.51 L2.25 533.26 L0 533.26 L0 535.51 Z" class="st9"/>
			</g>
			<g id="shape343-326" v:mID="343" v:groupContext="shape" transform="translate(-24.4008,-5.1732)">
				<title>Sheet.343</title>
				<path d="M0 535.51 L2.25 535.51 L2.25 533.26 L0 533.26 L0 535.51 Z" class="st9"/>
			</g>
			<g id="shape344-329" v:mID="344" v:groupContext="shape" transform="translate(-5.26476,-276.549)">
				<title>Sheet.344</title>
				<path d="M0 535.51 L2.25 535.51 L2.25 533.26 L0 533.26 L0 535.51 Z" class="st9"/>
			</g>
			<g id="shape340-332" v:mID="340" v:groupContext="groupContent">
				<path d="M-1.13 535.51 L-16.87 535.51 L-16.87 237.51" class="st10"/>
			</g>
		</g>
		<g id="group484-335" transform="translate(70.8549,-47.6)" v:mID="484" v:groupContext="group">
			<v:userDefs>
				<v:ud v:nameU="F" v:val="VT0(1):26"/>
				<v:ud v:nameU="Format" v:val="VT0(0):26"/>
				<v:ud v:nameU="ActiveObject" v:prompt="0,0626" v:val="VT0(0):26"/>
			</v:userDefs>
			<title>Class.2699</title>
			<g id="shape485-336" v:mID="485" v:groupContext="shape" transform="translate(72,1.13687E-013)">
				<title>Sheet.485</title>
				<path d="M0 535.51 L0 499.51 L0 535.51 Z" class="st6"/>
			</g>
			<g id="shape486-340" v:mID="486" v:groupContext="shape">
				<title>Sheet.486</title>
				<path d="M72 535.51 L0 535.51 L72 535.51 Z" class="st6"/>
			</g>
			<g id="shape487-344" v:mID="487" v:groupContext="shape">
				<title>Sheet.487</title>
				<path d="M72 535.51 L0 535.51 L72 535.51 Z" class="st6"/>
			</g>
			<g id="shape488-348" v:mID="488" v:groupContext="shape">
				<title>Sheet.488</title>
				<path d="M72 535.51 L0 535.51 L72 535.51 Z" class="st6"/>
			</g>
			<g id="shape489-352" v:mID="489" v:groupContext="shape">
				<title>Sheet.489</title>
				<desc>Architectural Decisions</desc>
				<v:userDefs>
					<v:ud v:nameU="TabSize" v:val="VT0(0.125):0"/>
				</v:userDefs>
				<v:textBlock v:margins="rect(4,4,4,4)"/>
				<v:textRect cx="36" cy="517.514" width="72" height="36"/>
				<path d="M72 535.51 L72 499.51 L0 499.51 L0 535.51 L72 535.51 ZM0 535.51 L0 499.51 L0 535.51 ZM72 499.51 L72 535.51
							 L72 499.51 Z" class="st6"/>
				<path d="M72 535.51 L72 499.51" class="st3"/>
				<path d="M0 535.51 L0 499.51" class="st3"/>
				<path d="M0 499.51 L72 499.51" class="st3"/>
				<path d="M0 535.51 L72 535.51" class="st3"/>
				<text x="14.65" y="515.11" class="st4" v:langID="1031"><v:paragraph v:horizAlign="1"/><v:tabList/>Architectural <tspan
							x="19.66" dy="1.2em" class="st5">Decisions</tspan></text>			</g>
		</g>
		<g id="group490-361" transform="translate(72.8491,-65.6)" v:mID="490" v:groupContext="group">
			<v:userDefs>
				<v:ud v:nameU="BeginAngle" v:prompt="" v:val="VT0(0):32"/>
				<v:ud v:nameU="EndAngle" v:prompt="" v:val="VT0(1.5707963267949):32"/>
				<v:ud v:nameU="RealBeginX" v:val="VT0(0):1"/>
				<v:ud v:nameU="RealBeginY" v:val="VT0(0):1"/>
				<v:ud v:nameU="EndX" v:val="VT0(-1):1"/>
				<v:ud v:nameU="EndY" v:val="VT0(-0.375):1"/>
				<v:ud v:nameU="BeginArrowSize" v:val="VT0(0.17333333333333):29"/>
				<v:ud v:nameU="EndSize" v:val="VT0(0.17333333333333):29"/>
				<v:ud v:nameU="FillColor" v:prompt="Association = 0, Composition = 2, Aggregation = 1, Namespace = 3"
						v:val="VT0(0):26"/>
				<v:ud v:nameU="Navigability" v:prompt="Position of first &#60;--- or -X----" v:val="VT0(0):1"/>
				<v:ud v:nameU="NonNavigability" v:prompt="Position of first &#60;--- or -X----" v:val="VT0(0):1"/>
				<v:ud v:nameU="BeginArrow" v:prompt="No Arrow = 0, Arrow = 1" v:val="VT0(0):26"/>
				<v:ud v:nameU="SetBeginArrow" v:val="VT0(0):26"/>
				<v:ud v:nameU="SetEndArrow" v:val="VT0(0):26"/>
				<v:ud v:nameU="BeginDot" v:prompt="No Dot = 0; Dot = 1" v:val="VT0(0):26"/>
				<v:ud v:nameU="SetBeginArrow42" v:val="VT0(0):26"/>
				<v:ud v:nameU="BeginAngle" v:prompt="" v:val="VT0(3.1415926535898):32"/>
				<v:ud v:nameU="RealBeginX" v:prompt="" v:val="VT0(-0.027697370917427):1"/>
				<v:ud v:nameU="EndX" v:prompt="" v:val="VT0(0.22230262908257):1"/>
				<v:ud v:nameU="EndY" v:prompt="" v:val="VT0(-5.0923611111111):1"/>
				<v:ud v:nameU="BeginArrowSize" v:prompt="" v:val="VT0(0.21555555555556):29"/>
				<v:ud v:nameU="EndSize" v:prompt="" v:val="VT0(0.21555555555556):29"/>
				<v:ud v:nameU="Navigability" v:prompt="" v:val="VT0(-0.027697370917427):1"/>
			</v:userDefs>
			<title>Routable Relationship.2705</title>
			<g id="shape491-362" v:mID="491" v:groupContext="shape" transform="translate(-29.8605,-343.191)">
				<title>Sheet.491</title>
				<path d="M0 535.51 L2.25 535.51 L2.25 533.26 L0 533.26 L0 535.51 Z" class="st9"/>
			</g>
			<g id="shape492-365" v:mID="492" v:groupContext="shape" transform="translate(-27.2688,7.4268)">
				<title>Sheet.492</title>
				<path d="M0 535.51 L2.25 535.51 L2.25 533.26 L0 533.26 L0 535.51 Z" class="st9"/>
			</g>
			<g id="shape493-368" v:mID="493" v:groupContext="shape" transform="translate(-27.2688,-5.1732)">
				<title>Sheet.493</title>
				<path d="M0 535.51 L2.25 535.51 L2.25 533.26 L0 533.26 L0 535.51 Z" class="st9"/>
			</g>
			<g id="shape494-371" v:mID="494" v:groupContext="shape" transform="translate(-4.40467,-343.191)">
				<title>Sheet.494</title>
				<path d="M0 535.51 L2.25 535.51 L2.25 533.26 L0 533.26 L0 535.51 Z" class="st9"/>
			</g>
			<g id="shape490-374" v:mID="490" v:groupContext="groupContent">
				<path d="M-1.99 535.51 L-16.01 535.51 L-16.01 168.86" class="st10"/>
			</g>
		</g>
	</g>
</svg>
